<svg width="141" height="164" viewBox="0 0 141 164" fill="none" xmlns="http://www.w3.org/2000/svg">
<path d="M113.498 154.46C106.598 154.46 102.55 149.354 102.55 142.454C102.55 135.554 106.598 130.54 113.498 130.54C120.352 130.54 124.354 135.554 124.354 142.454C124.354 149.354 120.352 154.46 113.498 154.46ZM113.498 134.22C108.576 134.22 106.414 138.084 106.414 142.454C106.414 146.824 108.576 150.78 113.498 150.78C118.374 150.78 120.49 146.824 120.49 142.454C120.49 138.084 118.374 134.22 113.498 134.22Z" fill="white"/>
<path d="M100.349 153.954C100.027 154.046 99.3371 154.138 98.3251 154.138C94.5531 154.138 92.1611 152.344 92.1611 148.112V121.386H96.1171V147.652C96.1171 149.722 97.4971 150.458 99.1991 150.458C99.6131 150.458 99.8891 150.458 100.349 150.412V153.954Z" fill="white"/>
<path d="M88.355 153.954C88.033 154.046 87.343 154.138 86.331 154.138C82.559 154.138 80.167 152.344 80.167 148.112V121.386H84.123V147.652C84.123 149.722 85.503 150.458 87.205 150.458C87.619 150.458 87.895 150.458 88.355 150.412V153.954Z" fill="white"/>
<path d="M65.3356 134.128C61.1496 134.128 59.0336 136.842 58.6196 140.844H71.4536C71.2236 136.566 69.2916 134.128 65.3356 134.128ZM74.1676 153.08C72.2816 154.092 69.3836 154.46 67.0376 154.46C58.4356 154.46 54.6636 149.492 54.6636 142.454C54.6636 135.508 58.5276 130.54 65.5196 130.54C72.6036 130.54 75.4556 135.462 75.4556 142.454V144.248H58.6656C59.2176 148.158 61.7476 150.688 67.1756 150.688C69.8436 150.688 72.0976 150.182 74.1676 149.446V153.08Z" fill="white"/>
<path d="M44.949 140.43V154H41.085V131H44.949V135.048C46.283 132.334 48.583 130.402 53.091 130.678V134.542C48.031 134.036 44.949 135.554 44.949 140.43Z" fill="white"/>
<path d="M16.4521 123.777H39.0842V127.733H29.8381V153.999H25.6981V127.733H16.4521V123.777Z" fill="white"/>
<path d="M64.1862 95.9862C64.1862 98.5152 65.3302 100.502 69.9666 101.405C72.6761 102.007 73.2782 102.429 73.2782 103.332C73.2782 104.235 72.6761 104.777 70.7493 104.777C68.5215 104.777 65.8721 103.994 64.126 102.971V107.065C65.5109 107.728 67.3172 108.51 70.7493 108.51C75.5663 108.51 77.4329 106.343 77.4329 103.212M77.4329 103.272C77.4329 100.261 75.8674 98.8764 71.3514 97.913C68.8827 97.3711 68.2806 96.8292 68.2806 96.0464C68.2806 95.0831 69.1838 94.6616 70.8095 94.6616C72.7965 94.6616 74.7233 95.2637 76.5899 96.1067V92.1929C75.2653 91.5305 73.2782 91.0488 70.93 91.0488C66.4743 91.0488 64.1862 92.9756 64.1862 96.1067" fill="white"/>
<path d="M125.844 91.1689V108.329H129.517V95.2634L131.022 98.6955L136.2 108.329H140.776V91.1689H137.164V102.248L135.779 98.9965L131.624 91.1689H125.844Z" fill="white"/>
<path d="M102.602 91.1689H98.6279V108.329H102.602V91.1689Z" fill="white"/>
<path d="M94.0515 103.211C94.0515 100.201 92.486 98.8159 87.9701 97.8525C85.5014 97.3106 84.8993 96.7687 84.8993 95.9859C84.8993 95.0225 85.8025 94.601 87.4282 94.601C89.4152 94.601 91.342 95.2031 93.2086 96.0461V92.1323C91.8839 91.47 89.8969 90.9883 87.5486 90.9883C83.0929 90.9883 80.8048 92.9151 80.8048 96.0461C80.8048 98.575 81.9489 100.562 86.5852 101.465C89.2948 102.067 89.8969 102.489 89.8969 103.392C89.8969 104.295 89.2948 104.837 87.368 104.837C85.1401 104.837 82.4908 104.054 80.7446 103.031V107.125C82.1295 107.788 83.9359 108.57 87.368 108.57C92.1247 108.57 94.0515 106.403 94.0515 103.211Z" fill="white"/>
<path d="M33.2373 91.1689V108.329H41.4262L42.6906 104.596H37.2113V91.1689H33.2373Z" fill="white"/>
<path d="M17.0405 91.1689V94.8419H21.436V108.329H25.4702V94.8419H30.227V91.1689H17.0405Z" fill="white"/>
<path d="M11.1995 91.1689H5.96101L0 108.329H4.57613L5.4191 105.439C6.44271 105.74 7.52653 105.921 8.61035 105.921C9.69418 105.921 10.778 105.74 11.8016 105.439L12.6446 108.329H17.2207C17.1605 108.329 11.1995 91.1689 11.1995 91.1689ZM8.55014 102.308C7.76738 102.308 7.04483 102.188 6.3825 102.007L8.55014 94.5408L10.7178 102.007C10.0554 102.188 9.3329 102.308 8.55014 102.308Z" fill="white"/>
<path d="M55.5756 91.1689H50.3371L44.3159 108.329H48.8921L49.735 105.439C50.7586 105.74 51.8425 105.921 52.9263 105.921C54.0101 105.921 55.0939 105.74 56.1175 105.439L56.9605 108.329H61.5366L55.5756 91.1689ZM52.9263 102.308C52.1435 102.308 51.421 102.188 50.7586 102.007L52.9263 94.5408L55.0939 102.007C54.4316 102.188 53.709 102.308 52.9263 102.308Z" fill="white"/>
<path d="M116.992 91.1689H111.754L105.793 108.329H110.369L111.212 105.439C112.236 105.74 113.319 105.921 114.403 105.921C115.487 105.921 116.571 105.74 117.595 105.439L118.438 108.329H123.014L116.992 91.1689ZM114.403 102.308C113.621 102.308 112.898 102.188 112.236 102.007L114.403 94.5408L116.571 102.007C115.909 102.188 115.126 102.308 114.403 102.308Z" fill="white"/>
<path d="M33 18.75C33 8.39466 41.3947 0 51.75 0H89.25C99.6053 0 108 8.39466 108 18.75V56.25C108 66.6053 99.6053 75 89.25 75H51.75C41.3947 75 33 66.6053 33 56.25V18.75Z" fill="#1558BC"/>
<path d="M63.2274 56.25C64.6856 56.25 65.869 55.0984 65.869 53.6748V21.3252C65.869 19.9036 64.6877 18.75 63.2274 18.75H52.0478C50.5896 18.75 49.4062 19.9016 49.4062 21.3252V53.6748C49.4062 55.0964 50.5876 56.25 52.0478 56.25H63.2274Z" fill="white"/>
<path d="M88.9522 41.3988C90.4104 41.3988 91.5938 40.2471 91.5938 38.8236V21.3252C91.5938 19.9036 90.4124 18.75 88.9522 18.75H77.7726C76.3144 18.75 75.131 19.9016 75.131 21.3252V38.8236C75.131 40.2451 76.3123 41.3988 77.7726 41.3988H88.9522Z" fill="white"/>
</svg>
