<svg width="232" height="75" viewBox="0 0 232 75" fill="none" xmlns="http://www.w3.org/2000/svg">
<path d="M184.46 65.46C177.56 65.46 173.512 60.354 173.512 53.454C173.512 46.554 177.56 41.54 184.46 41.54C191.314 41.54 195.316 46.554 195.316 53.454C195.316 60.354 191.314 65.46 184.46 65.46ZM184.46 45.22C179.538 45.22 177.376 49.084 177.376 53.454C177.376 57.824 179.538 61.78 184.46 61.78C189.336 61.78 191.452 57.824 191.452 53.454C191.452 49.084 189.336 45.22 184.46 45.22Z" fill="#101214"/>
<path d="M171.311 64.9537C170.989 65.0457 170.299 65.1377 169.287 65.1377C165.515 65.1377 163.123 63.3437 163.123 59.1117V32.3857H167.079V58.6517C167.079 60.7217 168.459 61.4577 170.161 61.4577C170.575 61.4577 170.851 61.4577 171.311 61.4117V64.9537Z" fill="#101214"/>
<path d="M159.317 64.9537C158.995 65.0457 158.305 65.1377 157.293 65.1377C153.521 65.1377 151.129 63.3437 151.129 59.1117V32.3857H155.085V58.6517C155.085 60.7217 156.465 61.4577 158.167 61.4577C158.581 61.4577 158.857 61.4577 159.317 61.4117V64.9537Z" fill="#101214"/>
<path d="M136.298 45.128C132.112 45.128 129.996 47.842 129.582 51.844H142.416C142.186 47.566 140.254 45.128 136.298 45.128ZM145.13 64.08C143.244 65.092 140.346 65.46 138 65.46C129.398 65.46 125.626 60.492 125.626 53.454C125.626 46.508 129.49 41.54 136.482 41.54C143.566 41.54 146.418 46.462 146.418 53.454V55.248H129.628C130.18 59.158 132.71 61.688 138.138 61.688C140.806 61.688 143.06 61.182 145.13 60.446V64.08Z" fill="#101214"/>
<path d="M115.911 51.4296V64.9996H112.047V41.9996H115.911V46.0476C117.245 43.3336 119.545 41.4016 124.053 41.6776V45.5416C118.993 45.0356 115.911 46.5536 115.911 51.4296Z" fill="#101214"/>
<path d="M87.4141 34.7773H110.046V38.7333H100.8V64.9993H96.6601V38.7333H87.4141V34.7773Z" fill="#101214"/>
<path d="M155.186 11.9862C155.186 14.5152 156.33 16.5022 160.967 17.4053C163.676 18.0075 164.278 18.4289 164.278 19.3321C164.278 20.2353 163.676 20.7772 161.749 20.7772C159.522 20.7772 156.872 19.9945 155.126 18.9709V23.0653C156.511 23.7276 158.317 24.5104 161.749 24.5104C166.566 24.5104 168.433 22.3427 168.433 19.2117M168.433 19.2719C168.433 16.2613 166.867 14.8764 162.352 13.913C159.883 13.3711 159.281 12.8292 159.281 12.0464C159.281 11.0831 160.184 10.6616 161.81 10.6616C163.797 10.6616 165.723 11.2637 167.59 12.1067V8.19286C166.265 7.53053 164.278 7.04883 161.93 7.04883C157.474 7.04883 155.186 8.97562 155.186 12.1067" fill="#101214"/>
<path d="M216.844 7.16895V24.3294H220.517V11.2634L222.022 14.6955L227.2 24.3294H231.777V7.16895H228.164V18.248L226.779 14.9965L222.624 7.16895H216.844Z" fill="#101214"/>
<path d="M193.602 7.16895H189.628V24.3294H193.602V7.16895Z" fill="#101214"/>
<path d="M185.052 19.2114C185.052 16.2008 183.486 14.8159 178.97 13.8525C176.501 13.3106 175.899 12.7687 175.899 11.9859C175.899 11.0225 176.802 10.601 178.428 10.601C180.415 10.601 182.342 11.2031 184.209 12.0461V8.13231C182.884 7.46998 180.897 6.98828 178.549 6.98828C174.093 6.98828 171.805 8.91507 171.805 12.0461C171.805 14.575 172.949 16.562 177.585 17.4652C180.295 18.0673 180.897 18.4888 180.897 19.392C180.897 20.2952 180.295 20.8371 178.368 20.8371C176.14 20.8371 173.491 20.0543 171.745 19.0307V23.1252C173.13 23.7875 174.936 24.5703 178.368 24.5703C183.125 24.5703 185.052 22.4026 185.052 19.2114Z" fill="#101214"/>
<path d="M124.237 7.16895V24.3294H132.426L133.691 20.5963H128.211V7.16895H124.237Z" fill="#101214"/>
<path d="M108.04 7.16895V10.8419H112.436V24.3294H116.47V10.8419H121.227V7.16895H108.04Z" fill="#101214"/>
<path d="M102.2 7.16895H96.9611L91.0001 24.3294H95.5763L96.4192 21.4393C97.4428 21.7403 98.5267 21.9209 99.6105 21.9209C100.694 21.9209 101.778 21.7403 102.802 21.4393L103.645 24.3294H108.221C108.161 24.3294 102.2 7.16895 102.2 7.16895ZM99.5503 18.3082C98.7675 18.3082 98.045 18.1878 97.3826 18.0072L99.5503 10.5408L101.718 18.0072C101.056 18.1878 100.333 18.3082 99.5503 18.3082Z" fill="#101214"/>
<path d="M146.576 7.16895H141.337L135.316 24.3294H139.892L140.735 21.4393C141.759 21.7403 142.843 21.9209 143.927 21.9209C145.01 21.9209 146.094 21.7403 147.118 21.4393L147.961 24.3294H152.537L146.576 7.16895ZM143.927 18.3082C143.144 18.3082 142.421 18.1878 141.759 18.0072L143.927 10.5408L146.094 18.0072C145.432 18.1878 144.709 18.3082 143.927 18.3082Z" fill="#101214"/>
<path d="M207.992 7.16895H202.754L196.793 24.3294H201.369L202.212 21.4393C203.236 21.7403 204.319 21.9209 205.403 21.9209C206.487 21.9209 207.571 21.7403 208.595 21.4393L209.438 24.3294H214.014L207.992 7.16895ZM205.403 18.3082C204.621 18.3082 203.898 18.1878 203.236 18.0072L205.403 10.5408L207.571 18.0072C206.909 18.1878 206.126 18.3082 205.403 18.3082Z" fill="#101214"/>
<path d="M0 18.75C0 8.39466 8.39466 0 18.75 0H56.25C66.6053 0 75 8.39466 75 18.75V56.25C75 66.6053 66.6053 75 56.25 75H18.75C8.39466 75 0 66.6053 0 56.25V18.75Z" fill="#1558BC"/>
<path d="M30.2274 56.25C31.6856 56.25 32.869 55.0984 32.869 53.6748V21.3252C32.869 19.9036 31.6877 18.75 30.2274 18.75H19.0478C17.5896 18.75 16.4062 19.9016 16.4062 21.3252V53.6748C16.4062 55.0964 17.5876 56.25 19.0478 56.25H30.2274Z" fill="white"/>
<path d="M55.9522 41.3988C57.4104 41.3988 58.5938 40.2471 58.5938 38.8236V21.3252C58.5938 19.9036 57.4124 18.75 55.9522 18.75H44.7726C43.3144 18.75 42.131 19.9016 42.131 21.3252V38.8236C42.131 40.2451 43.3123 41.3988 44.7726 41.3988H55.9522Z" fill="white"/>
</svg>
