<svg width="141" height="164" viewBox="0 0 141 164" fill="none" xmlns="http://www.w3.org/2000/svg">
<path d="M113.499 154.46C106.599 154.46 102.551 149.354 102.551 142.454C102.551 135.554 106.599 130.54 113.499 130.54C120.353 130.54 124.355 135.554 124.355 142.454C124.355 149.354 120.353 154.46 113.499 154.46ZM113.499 134.22C108.577 134.22 106.415 138.084 106.415 142.454C106.415 146.824 108.577 150.78 113.499 150.78C118.375 150.78 120.491 146.824 120.491 142.454C120.491 138.084 118.375 134.22 113.499 134.22Z" fill="#101214"/>
<path d="M100.349 153.954C100.027 154.046 99.3369 154.138 98.3249 154.138C94.5529 154.138 92.1609 152.344 92.1609 148.112V121.386H96.1169V147.652C96.1169 149.722 97.4969 150.458 99.1989 150.458C99.6129 150.458 99.8889 150.458 100.349 150.412V153.954Z" fill="#101214"/>
<path d="M88.3548 153.954C88.0328 154.046 87.3427 154.138 86.3307 154.138C82.5587 154.138 80.1667 152.344 80.1667 148.112V121.386H84.1227V147.652C84.1227 149.722 85.5028 150.458 87.2048 150.458C87.6188 150.458 87.8948 150.458 88.3548 150.412V153.954Z" fill="#101214"/>
<path d="M65.3358 134.128C61.1498 134.128 59.0338 136.842 58.6198 140.844H71.4538C71.2238 136.566 69.2918 134.128 65.3358 134.128ZM74.1678 153.08C72.2818 154.092 69.3838 154.46 67.0378 154.46C58.4358 154.46 54.6638 149.492 54.6638 142.454C54.6638 135.508 58.5278 130.54 65.5198 130.54C72.6038 130.54 75.4558 135.462 75.4558 142.454V144.248H58.6658C59.2178 148.158 61.7478 150.688 67.1758 150.688C69.8438 150.688 72.0978 150.182 74.1678 149.446V153.08Z" fill="#101214"/>
<path d="M44.9487 140.43V154H41.0847V131H44.9487V135.048C46.2827 132.334 48.5827 130.402 53.0907 130.678V134.542C48.0307 134.036 44.9487 135.554 44.9487 140.43Z" fill="#101214"/>
<path d="M16.4521 123.777H39.0842V127.733H29.8381V153.999H25.6981V127.733H16.4521V123.777Z" fill="#101214"/>
<path d="M64.1862 95.9862C64.1862 98.5152 65.3302 100.502 69.9666 101.405C72.6761 102.007 73.2782 102.429 73.2782 103.332C73.2782 104.235 72.6761 104.777 70.7493 104.777C68.5215 104.777 65.8721 103.994 64.126 102.971V107.065C65.5109 107.728 67.3172 108.51 70.7493 108.51C75.5663 108.51 77.4329 106.343 77.4329 103.212M77.4329 103.272C77.4329 100.261 75.8674 98.8764 71.3514 97.913C68.8827 97.3711 68.2806 96.8292 68.2806 96.0464C68.2806 95.0831 69.1838 94.6616 70.8095 94.6616C72.7965 94.6616 74.7233 95.2637 76.5899 96.1067V92.1929C75.2653 91.5305 73.2782 91.0488 70.93 91.0488C66.4743 91.0488 64.1862 92.9756 64.1862 96.1067" fill="#101214"/>
<path d="M125.844 91.1689V108.329H129.517V95.2634L131.022 98.6955L136.2 108.329H140.776V91.1689H137.164V102.248L135.779 98.9965L131.624 91.1689H125.844Z" fill="#101214"/>
<path d="M102.602 91.1689H98.6279V108.329H102.602V91.1689Z" fill="#101214"/>
<path d="M94.0515 103.211C94.0515 100.201 92.486 98.8159 87.9701 97.8525C85.5014 97.3106 84.8993 96.7687 84.8993 95.9859C84.8993 95.0225 85.8025 94.601 87.4282 94.601C89.4152 94.601 91.342 95.2031 93.2086 96.0461V92.1323C91.8839 91.47 89.8969 90.9883 87.5486 90.9883C83.0929 90.9883 80.8048 92.9151 80.8048 96.0461C80.8048 98.575 81.9489 100.562 86.5852 101.465C89.2948 102.067 89.8969 102.489 89.8969 103.392C89.8969 104.295 89.2948 104.837 87.368 104.837C85.1401 104.837 82.4908 104.054 80.7446 103.031V107.125C82.1295 107.788 83.9359 108.57 87.368 108.57C92.1247 108.57 94.0515 106.403 94.0515 103.211Z" fill="#101214"/>
<path d="M33.2371 91.1689V108.329H41.4259L42.6904 104.596H37.2111V91.1689H33.2371Z" fill="#101214"/>
<path d="M17.0403 91.1689V94.8419H21.4358V108.329H25.47V94.8419H30.2268V91.1689H17.0403Z" fill="#101214"/>
<path d="M11.1995 91.1689H5.96101L0 108.329H4.57613L5.4191 105.439C6.44271 105.74 7.52653 105.921 8.61035 105.921C9.69418 105.921 10.778 105.74 11.8016 105.439L12.6446 108.329H17.2207C17.1605 108.329 11.1995 91.1689 11.1995 91.1689ZM8.55014 102.308C7.76738 102.308 7.04483 102.188 6.3825 102.007L8.55014 94.5408L10.7178 102.007C10.0554 102.188 9.3329 102.308 8.55014 102.308Z" fill="#101214"/>
<path d="M55.5759 91.1689H50.3374L44.3162 108.329H48.8923L49.7353 105.439C50.7589 105.74 51.8427 105.921 52.9265 105.921C54.0103 105.921 55.0942 105.74 56.1178 105.439L56.9607 108.329H61.5369L55.5759 91.1689ZM52.9265 102.308C52.1438 102.308 51.4212 102.188 50.7589 102.007L52.9265 94.5408L55.0942 102.007C54.4318 102.188 53.7093 102.308 52.9265 102.308Z" fill="#101214"/>
<path d="M116.992 91.1689H111.754L105.793 108.329H110.369L111.212 105.439C112.236 105.74 113.319 105.921 114.403 105.921C115.487 105.921 116.571 105.74 117.595 105.439L118.438 108.329H123.014L116.992 91.1689ZM114.403 102.308C113.621 102.308 112.898 102.188 112.236 102.007L114.403 94.5408L116.571 102.007C115.909 102.188 115.126 102.308 114.403 102.308Z" fill="#101214"/>
<path d="M33 18.75C33 8.39466 41.3947 0 51.75 0H89.25C99.6053 0 108 8.39466 108 18.75V56.25C108 66.6053 99.6053 75 89.25 75H51.75C41.3947 75 33 66.6053 33 56.25V18.75Z" fill="#1558BC"/>
<path d="M63.2274 56.25C64.6856 56.25 65.869 55.0984 65.869 53.6748V21.3252C65.869 19.9036 64.6877 18.75 63.2274 18.75H52.0478C50.5896 18.75 49.4062 19.9016 49.4062 21.3252V53.6748C49.4062 55.0964 50.5876 56.25 52.0478 56.25H63.2274Z" fill="white"/>
<path d="M88.9522 41.3988C90.4104 41.3988 91.5938 40.2471 91.5938 38.8236V21.3252C91.5938 19.9036 90.4124 18.75 88.9522 18.75H77.7726C76.3144 18.75 75.131 19.9016 75.131 21.3252V38.8236C75.131 40.2451 76.3123 41.3988 77.7726 41.3988H88.9522Z" fill="white"/>
</svg>
